<?xml version="1.0" encoding="utf-8"?>
<!DOCTYPE svg PUBLIC "-//W3C//DTD SVG 1.1//EN" "http://www.w3.org/Graphics/SVG/1.1/DTD/svg11.dtd">
<svg version="1.1" xmlns="http://www.w3.org/2000/svg" xmlns:xlink="http://www.w3.org/1999/xlink" width="768" height="768" viewBox="0 0 768 768">
<g>
</g>
<path fill="#fff" d="M240.756 768c-51.184-106.506-23.926-167.534 15.413-225.033 43.080-62.967 54.183-125.299 54.183-125
.299s33.865 44.025 20.319 112.881c59.829-66.6 71.118-172.71 62.087-213.348 135.236 94.509 193.032 299.142 115.142 450.799 414.279-234.399 103.049-585.129 48.866-624.638 18.061 39.507 21.486 106.388-15 138.845-61.764-234.207-214.479-282.207-214.479-282.207 18.062 120.783-65.472 252.858-146.022 351.548-2.831-48.162-5.837-81.396-31.162-127.485-5.685 87.492-72.549 158.811-90.655 246.471-24.526 118.715 18.372 205.635 181.311 297.467z"></path>
</svg>
